<svg width="168" height="168" viewBox="0 0 168 168" fill="none" xmlns="http://www.w3.org/2000/svg">
<rect width="168" height="168" rx="15" fill="#D9D9D9"/>
<path d="M51.072 78.768V80.96H48.096V90H45.36V80.96H42.384V78.768H51.072ZM55.1811 82.56C55.5011 82.0693 55.9011 81.6853 56.3811 81.408C56.8611 81.12 57.3945 80.976 57.9811 80.976V83.872H57.2291C56.5465 83.872 56.0345 84.0213 55.6931 84.32C55.3518 84.608 55.1811 85.12 55.1811 85.856V90H52.4451V81.072H55.1811V82.56ZM58.7449 85.52C58.7449 84.6027 58.9155 83.7973 59.2569 83.104C59.6089 82.4107 60.0835 81.8773 60.6809 81.504C61.2782 81.1307 61.9449 80.944 62.6809 80.944C63.3102 80.944 63.8595 81.072 64.3289 81.328C64.8089 81.584 65.1769 81.92 65.4329 82.336V81.072H68.1689V90H65.4329V88.736C65.1662 89.152 64.7929 89.488 64.3129 89.744C63.8435 90 63.2942 90.128 62.6649 90.128C61.9395 90.128 61.2782 89.9413 60.6809 89.568C60.0835 89.184 59.6089 88.6453 59.2569 87.952C58.9155 87.248 58.7449 86.4373 58.7449 85.52ZM65.4329 85.536C65.4329 84.8533 65.2409 84.3147 64.8569 83.92C64.4835 83.5253 64.0249 83.328 63.4809 83.328C62.9369 83.328 62.4729 83.5253 62.0889 83.92C61.7155 84.304 61.5289 84.8373 61.5289 85.52C61.5289 86.2027 61.7155 86.7467 62.0889 87.152C62.4729 87.5467 62.9369 87.744 63.4809 87.744C64.0249 87.744 64.4835 87.5467 64.8569 87.152C65.2409 86.7573 65.4329 86.2187 65.4329 85.536ZM74.1643 87.44L76.1003 81.072H79.0123L75.8443 90H72.4683L69.3003 81.072H72.2283L74.1643 87.44ZM88.5799 85.392C88.5799 85.648 88.5639 85.9147 88.5319 86.192H82.3399C82.3825 86.7467 82.5585 87.1733 82.8679 87.472C83.1879 87.76 83.5772 87.904 84.0359 87.904C84.7185 87.904 85.1932 87.616 85.4599 87.04H88.3719C88.2225 87.6267 87.9505 88.1547 87.5559 88.624C87.1719 89.0933 86.6865 89.4613 86.0999 89.728C85.5132 89.9947 84.8572 90.128 84.1319 90.128C83.2572 90.128 82.4785 89.9413 81.7959 89.568C81.1132 89.1947 80.5799 88.6613 80.1959 87.968C79.8119 87.2747 79.6199 86.464 79.6199 85.536C79.6199 84.608 79.8065 83.7973 80.1799 83.104C80.5639 82.4107 81.0972 81.8773 81.7799 81.504C82.4625 81.1307 83.2465 80.944 84.1319 80.944C84.9959 80.944 85.7639 81.1253 86.4359 81.488C87.1079 81.8507 87.6305 82.368 88.0039 83.04C88.3879 83.712 88.5799 84.496 88.5799 85.392ZM85.7799 84.672C85.7799 84.2027 85.6199 83.8293 85.2999 83.552C84.9799 83.2747 84.5799 83.136 84.0999 83.136C83.6412 83.136 83.2519 83.2693 82.9319 83.536C82.6225 83.8027 82.4305 84.1813 82.3559 84.672H85.7799ZM92.7593 78.16V90H90.0233V78.16H92.7593ZM100.869 87.888H104.453V90H98.1326V78.768H100.869V87.888ZM109.822 90.128C108.947 90.128 108.158 89.9413 107.454 89.568C106.76 89.1947 106.211 88.6613 105.806 87.968C105.411 87.2747 105.214 86.464 105.214 85.536C105.214 84.6187 105.416 83.8133 105.822 83.12C106.227 82.416 106.782 81.8773 107.486 81.504C108.19 81.1307 108.979 80.944 109.854 80.944C110.728 80.944 111.518 81.1307 112.222 81.504C112.926 81.8773 113.48 82.416 113.886 83.12C114.291 83.8133 114.494 84.6187 114.494 85.536C114.494 86.4533 114.286 87.264 113.87 87.968C113.464 88.6613 112.904 89.1947 112.19 89.568C111.486 89.9413 110.696 90.128 109.822 90.128ZM109.822 87.76C110.344 87.76 110.787 87.568 111.15 87.184C111.523 86.8 111.71 86.2507 111.71 85.536C111.71 84.8213 111.528 84.272 111.166 83.888C110.814 83.504 110.376 83.312 109.854 83.312C109.32 83.312 108.878 83.504 108.526 83.888C108.174 84.2613 107.998 84.8107 107.998 85.536C107.998 86.2507 108.168 86.8 108.51 87.184C108.862 87.568 109.299 87.76 109.822 87.76ZM119.337 80.944C119.966 80.944 120.516 81.072 120.985 81.328C121.465 81.584 121.833 81.92 122.089 82.336V81.072H124.825V89.984C124.825 90.8053 124.66 91.5467 124.329 92.208C124.009 92.88 123.513 93.4133 122.841 93.808C122.18 94.2027 121.353 94.4 120.361 94.4C119.038 94.4 117.966 94.0853 117.145 93.456C116.324 92.8373 115.854 91.9947 115.737 90.928H118.441C118.526 91.2693 118.729 91.536 119.049 91.728C119.369 91.9307 119.764 92.032 120.233 92.032C120.798 92.032 121.246 91.8667 121.577 91.536C121.918 91.216 122.089 90.6987 122.089 89.984V88.72C121.822 89.136 121.454 89.4773 120.985 89.744C120.516 90 119.966 90.128 119.337 90.128C118.601 90.128 117.934 89.9413 117.337 89.568C116.74 89.184 116.265 88.6453 115.913 87.952C115.572 87.248 115.401 86.4373 115.401 85.52C115.401 84.6027 115.572 83.7973 115.913 83.104C116.265 82.4107 116.74 81.8773 117.337 81.504C117.934 81.1307 118.601 80.944 119.337 80.944ZM122.089 85.536C122.089 84.8533 121.897 84.3147 121.513 83.92C121.14 83.5253 120.681 83.328 120.137 83.328C119.593 83.328 119.129 83.5253 118.745 83.92C118.372 84.304 118.185 84.8373 118.185 85.52C118.185 86.2027 118.372 86.7467 118.745 87.152C119.129 87.5467 119.593 87.744 120.137 87.744C120.681 87.744 121.14 87.5467 121.513 87.152C121.897 86.7573 122.089 86.2187 122.089 85.536Z" fill="#5B5B5B"/>
</svg>
