<svg width="115" height="115" viewBox="0 0 115 115" fill="none" xmlns="http://www.w3.org/2000/svg">
<g id="account_circle">
<mask id="mask0_108_1214" style="mask-type:alpha" maskUnits="userSpaceOnUse" x="0" y="0" width="115" height="115">
<rect id="Bounding box" width="115" height="115" fill="#D9D9D9"/>
</mask>
<g mask="url(#mask0_108_1214)">
<path id="account_circle_2" d="M28.0309 81.9374C32.1038 78.8228 36.6559 76.3671 41.6872 74.5702C46.7184 72.7734 51.9893 71.8749 57.4997 71.8749C63.0101 71.8749 68.2809 72.7734 73.3122 74.5702C78.3434 76.3671 82.8955 78.8228 86.9684 81.9374C89.7636 78.6631 91.9398 74.9496 93.4971 70.7968C95.0544 66.644 95.833 62.2117 95.833 57.4999C95.833 46.8784 92.0995 37.8341 84.6325 30.3671C77.1655 22.9001 68.1212 19.1666 57.4997 19.1666C46.8781 19.1666 37.8339 22.9001 30.3669 30.3671C22.8998 37.8341 19.1663 46.8784 19.1663 57.4999C19.1663 62.2117 19.945 66.644 21.5023 70.7968C23.0596 74.9496 25.2358 78.6631 28.0309 81.9374ZM57.4997 62.2916C52.7879 62.2916 48.8148 60.6744 45.5804 57.44C42.346 54.2056 40.7288 50.2326 40.7288 45.5208C40.7288 40.8089 42.346 36.8359 45.5804 33.6015C48.8148 30.3671 52.7879 28.7499 57.4997 28.7499C62.2115 28.7499 66.1846 30.3671 69.4189 33.6015C72.6533 36.8359 74.2705 40.8089 74.2705 45.5208C74.2705 50.2326 72.6533 54.2056 69.4189 57.44C66.1846 60.6744 62.2115 62.2916 57.4997 62.2916ZM57.4997 105.417C50.8712 105.417 44.642 104.159 38.8122 101.643C32.9823 99.1275 27.9111 95.7135 23.5986 91.401C19.2861 87.0885 15.8721 82.0173 13.3564 76.1874C10.8408 70.3576 9.58301 64.1284 9.58301 57.4999C9.58301 50.8714 10.8408 44.6423 13.3564 38.8124C15.8721 32.9826 19.2861 27.9114 23.5986 23.5989C27.9111 19.2864 32.9823 15.8723 38.8122 13.3567C44.642 10.8411 50.8712 9.58325 57.4997 9.58325C64.1281 9.58325 70.3573 10.8411 76.1872 13.3567C82.017 15.8723 87.0882 19.2864 91.4007 23.5989C95.7132 27.9114 99.1273 32.9826 101.643 38.8124C104.159 44.6423 105.416 50.8714 105.416 57.4999C105.416 64.1284 104.159 70.3576 101.643 76.1874C99.1273 82.0173 95.7132 87.0885 91.4007 91.401C87.0882 95.7135 82.017 99.1275 76.1872 101.643C70.3573 104.159 64.1281 105.417 57.4997 105.417ZM57.4997 95.8333C61.7323 95.8333 65.7254 95.2143 69.4788 93.9765C73.2323 92.7386 76.6663 90.9617 79.7809 88.6458C76.6663 86.3298 73.2323 84.5529 69.4788 83.315C65.7254 82.0772 61.7323 81.4583 57.4997 81.4583C53.267 81.4583 49.274 82.0772 45.5205 83.315C41.767 84.5529 38.333 86.3298 35.2184 88.6458C38.333 90.9617 41.767 92.7386 45.5205 93.9765C49.274 95.2143 53.267 95.8333 57.4997 95.8333ZM57.4997 52.7083C59.5761 52.7083 61.2931 52.0294 62.6507 50.6718C64.0084 49.3142 64.6872 47.5971 64.6872 45.5208C64.6872 43.4444 64.0084 41.7273 62.6507 40.3697C61.2931 39.0121 59.5761 38.3333 57.4997 38.3333C55.4233 38.3333 53.7063 39.0121 52.3486 40.3697C50.991 41.7273 50.3122 43.4444 50.3122 45.5208C50.3122 47.5971 50.991 49.3142 52.3486 50.6718C53.7063 52.0294 55.4233 52.7083 57.4997 52.7083Z" fill="#1C1B1F"/>
</g>
</g>
</svg>
