<svg width="42" height="31" viewBox="0 0 42 31" fill="none" xmlns="http://www.w3.org/2000/svg">
<path d="M12.641 27.8023C9.02769 31.2663 2.90805 31.2525 1.199 26.6359C0.864388 25.732 0.596857 24.8026 0.400088 23.8544C-0.403314 19.9823 0.00902161 15.9691 1.58496 12.3217C3.16088 8.67454 5.82963 5.55717 9.2537 3.36391C12.6778 1.17065 16.7035 -1.69107e-07 20.8216 0C24.9396 1.69107e-07 28.9653 1.17065 32.3893 3.36391C35.8134 5.55717 38.4822 8.67454 40.0581 12.3219C41.634 15.9691 42.0463 19.9823 41.243 23.8544C41.0462 24.8026 40.7787 25.732 40.444 26.6359C38.7349 31.2525 32.6153 31.2663 29.002 27.8023L23.4242 22.4553C22.8913 21.9445 22.9464 21.102 23.0934 20.3934C23.1827 19.9627 23.1368 19.5163 22.9615 19.1105C22.7862 18.7048 22.4893 18.3579 22.1084 18.114C21.7275 17.87 21.2797 17.7398 20.8216 17.7398C20.3634 17.7398 19.9156 17.87 19.5347 18.114C19.1537 18.3579 18.8568 18.7048 18.6815 19.1105C18.5062 19.5163 18.4603 19.9627 18.5497 20.3934C18.6968 21.102 18.7517 21.9445 18.2188 22.4553L12.641 27.8023Z" fill="url(#paint0_linear_108_1374)"/>
<defs>
<linearGradient id="paint0_linear_108_1374" x1="39.7477" y1="9.98014" x2="2.78956" y2="9.98014" gradientUnits="userSpaceOnUse">
<stop stop-color="#161490"/>
<stop offset="0.510417" stop-color="#7476ED"/>
<stop offset="1" stop-color="#E56F8C"/>
</linearGradient>
</defs>
</svg>
